# Blender 4.3.2
# www.blender.org
mtllib map.mtl
o Plane
v -14.447462 0.000000 14.447462
v 14.447462 0.000000 14.447462
v -14.447462 0.000000 -14.447462
v 14.447462 0.000000 -14.447462
v -2.240322 0.405475 -2.240322
v -2.240322 0.405475 2.240322
v 2.240322 0.405475 2.240322
v 2.240322 0.405475 -2.240322
v -3.359898 0.000000 -3.359898
v -3.359898 0.000000 3.359898
v 3.359898 0.000000 3.359898
v 3.359898 0.000000 -3.359898
v 34.905243 0.000000 14.447462
v 34.905243 0.000000 -14.447462
v 14.447462 -8.768125 -14.522813
v 34.911026 -8.768125 -14.522813
v 14.447462 -0.000000 -28.106766
v 14.447462 -8.768125 -28.106766
v 34.916805 -0.000000 -28.106766
v 34.916805 -8.768125 -28.106766
vn -0.0000 1.0000 -0.0000
vn -0.3405 0.9402 -0.0000
vn -0.0000 0.9402 0.3405
vn 0.3405 0.9402 -0.0000
vn -0.0000 0.9402 -0.3405
vn -0.0000 0.0086 -1.0000
vn 1.0000 -0.0000 -0.0000
vn -0.0000 -0.0000 1.0000
vn -1.0000 -0.0003 -0.0006
vt 0.402450 0.402450
vt 0.597550 0.402450
vt 0.597550 0.597550
vt 0.402450 0.597550
vt 0.353700 0.353700
vt 0.353700 0.646300
vt 0.000000 1.000000
vt 0.000000 0.000000
vt 0.646300 0.353700
vt 1.000000 0.000000
vt 0.646300 0.646300
vt 1.000000 1.000000
s 0
f 6/1/1 7/2/1 8/3/1 5/4/1
f 10/5/1 9/6/1 3/7/1 1/8/1
f 11/9/1 10/5/1 1/8/1 2/10/1
f 12/11/1 11/9/1 2/10/1 4/12/1
f 9/6/1 12/11/1 4/12/1 3/7/1
f 6/1/2 5/4/2 9/6/2 10/5/2
f 7/2/3 6/1/3 10/5/3 11/9/3
f 8/3/4 7/2/4 11/9/4 12/11/4
f 5/4/5 8/3/5 12/11/5 9/6/5
f 4/12/1 2/10/1 13/10/1 14/12/1
f 4/12/6 14/12/6 16/12/6 15/12/6
f 4/12/7 15/12/7 18/12/7 17/12/7
f 17/12/8 18/12/8 20/12/8 19/12/8
f 16/12/9 14/12/9 19/12/9 20/12/9
f 20/12/1 18/12/1 15/12/1 16/12/1
o Cube
v -13.636120 -0.183820 4.697701
v -13.636120 6.819341 4.697701
v -13.636120 -0.183820 -4.697701
v -13.636120 6.819341 -4.697701
v -11.636120 -0.183820 4.697701
v -11.636120 6.819341 4.697701
v -11.636120 -0.183820 -4.697701
v -11.636120 6.819341 -4.697701
vn -1.0000 -0.0000 -0.0000
vn -0.0000 -0.0000 -1.0000
vn 1.0000 -0.0000 -0.0000
vn -0.0000 -0.0000 1.0000
vn -0.0000 -1.0000 -0.0000
vn -0.0000 1.0000 -0.0000
vt 0.375000 0.000000
vt 0.625000 0.000000
vt 0.625000 0.250000
vt 0.375000 0.250000
vt 0.625000 0.500000
vt 0.375000 0.500000
vt 0.625000 0.750000
vt 0.375000 0.750000
vt 0.625000 1.000000
vt 0.375000 1.000000
vt 0.125000 0.500000
vt 0.125000 0.750000
vt 0.875000 0.500000
vt 0.875000 0.750000
s 0
f 21/13/10 22/14/10 24/15/10 23/16/10
f 23/16/11 24/15/11 28/17/11 27/18/11
f 27/18/12 28/17/12 26/19/12 25/20/12
f 25/20/13 26/19/13 22/21/13 21/22/13
f 23/23/14 27/18/14 25/20/14 21/24/14
f 28/17/15 24/25/15 22/26/15 26/19/15
o Cube.001
v -12.065959 2.832708 -5.537537
v -12.065959 3.802813 -5.537537
v -12.065959 2.832708 -14.932940
v -12.065959 3.802813 -14.932940
v -3.284189 2.832708 -5.537537
v -3.284189 3.802813 -5.537537
v -3.284189 2.832708 -14.932940
v -3.284189 3.802813 -14.932940
vn -1.0000 -0.0000 -0.0000
vn -0.0000 -0.0000 -1.0000
vn 1.0000 -0.0000 -0.0000
vn -0.0000 -0.0000 1.0000
vn -0.0000 -1.0000 -0.0000
vn -0.0000 1.0000 -0.0000
vt 0.375000 0.000000
vt 0.625000 0.000000
vt 0.625000 0.250000
vt 0.375000 0.250000
vt 0.625000 0.500000
vt 0.375000 0.500000
vt 0.625000 0.750000
vt 0.375000 0.750000
vt 0.625000 1.000000
vt 0.375000 1.000000
vt 0.125000 0.500000
vt 0.125000 0.750000
vt 0.875000 0.500000
vt 0.875000 0.750000
s 0
f 29/27/16 30/28/16 32/29/16 31/30/16
f 31/30/17 32/29/17 36/31/17 35/32/17
f 35/32/18 36/31/18 34/33/18 33/34/18
f 33/34/19 34/33/19 30/35/19 29/36/19
f 31/37/20 35/32/20 33/34/20 29/38/20
f 36/31/21 32/39/21 30/40/21 34/33/21
o Cube.002
v -11.321476 -0.744503 6.965729
v -11.321476 1.397663 6.965729
v -11.321476 -0.744503 3.804849
v -11.321476 1.397663 3.804849
v -9.321476 -0.744503 6.965729
v -9.321476 1.397663 6.965729
v -9.321476 -0.744503 3.804849
v -9.321476 1.397663 3.804849
vn -1.0000 -0.0000 -0.0000
vn -0.0000 -0.0000 -1.0000
vn 1.0000 -0.0000 -0.0000
vn -0.0000 -0.0000 1.0000
vn -0.0000 -1.0000 -0.0000
vn -0.0000 1.0000 -0.0000
vt 0.375000 0.000000
vt 0.625000 0.000000
vt 0.625000 0.250000
vt 0.375000 0.250000
vt 0.625000 0.500000
vt 0.375000 0.500000
vt 0.625000 0.750000
vt 0.375000 0.750000
vt 0.625000 1.000000
vt 0.375000 1.000000
vt 0.125000 0.500000
vt 0.125000 0.750000
vt 0.875000 0.500000
vt 0.875000 0.750000
s 0
f 37/41/22 38/42/22 40/43/22 39/44/22
f 39/44/23 40/43/23 44/45/23 43/46/23
f 43/46/24 44/45/24 42/47/24 41/48/24
f 41/48/25 42/47/25 38/49/25 37/50/25
f 39/51/26 43/46/26 41/48/26 37/52/26
f 44/45/27 40/53/27 38/54/27 42/47/27
o Cube.003
v -11.000932 -0.401173 8.402622
v -11.000932 1.054333 8.402622
v -11.000932 -0.401173 6.254944
v -11.000932 1.054333 6.254944
v -9.642020 -0.401173 8.402622
v -9.642020 1.054333 8.402622
v -9.642020 -0.401173 6.254944
v -9.642020 1.054333 6.254944
vn -1.0000 -0.0000 -0.0000
vn -0.0000 -0.0000 -1.0000
vn 1.0000 -0.0000 -0.0000
vn -0.0000 -0.0000 1.0000
vn -0.0000 -1.0000 -0.0000
vn -0.0000 1.0000 -0.0000
vt 0.375000 0.000000
vt 0.625000 0.000000
vt 0.625000 0.250000
vt 0.375000 0.250000
vt 0.625000 0.500000
vt 0.375000 0.500000
vt 0.625000 0.750000
vt 0.375000 0.750000
vt 0.625000 1.000000
vt 0.375000 1.000000
vt 0.125000 0.500000
vt 0.125000 0.750000
vt 0.875000 0.500000
vt 0.875000 0.750000
s 0
f 45/55/28 46/56/28 48/57/28 47/58/28
f 47/58/29 48/57/29 52/59/29 51/60/29
f 51/60/30 52/59/30 50/61/30 49/62/30
f 49/62/31 50/61/31 46/63/31 45/64/31
f 47/65/32 51/60/32 49/62/32 45/66/32
f 52/59/33 48/67/33 46/68/33 50/61/33
o Cube.004
v 32.223839 -0.183820 4.697701
v 32.223839 6.819341 4.697701
v 32.223839 -0.183820 -4.697701
v 32.223839 6.819341 -4.697701
v 34.223839 -0.183820 4.697701
v 34.223839 6.819341 4.697701
v 34.223839 -0.183820 -4.697701
v 34.223839 6.819341 -4.697701
vn -1.0000 -0.0000 -0.0000
vn -0.0000 -0.0000 -1.0000
vn 1.0000 -0.0000 -0.0000
vn -0.0000 -0.0000 1.0000
vn -0.0000 -1.0000 -0.0000
vn -0.0000 1.0000 -0.0000
vt 0.375000 0.000000
vt 0.625000 0.000000
vt 0.625000 0.250000
vt 0.375000 0.250000
vt 0.625000 0.500000
vt 0.375000 0.500000
vt 0.625000 0.750000
vt 0.375000 0.750000
vt 0.625000 1.000000
vt 0.375000 1.000000
vt 0.125000 0.500000
vt 0.125000 0.750000
vt 0.875000 0.500000
vt 0.875000 0.750000
s 0
f 53/69/34 54/70/34 56/71/34 55/72/34
f 55/72/35 56/71/35 60/73/35 59/74/35
f 59/74/36 60/73/36 58/75/36 57/76/36
f 57/76/37 58/75/37 54/77/37 53/78/37
f 55/79/38 59/74/38 57/76/38 53/80/38
f 60/73/39 56/81/39 54/82/39 58/75/39
o Cube.005
v 5.059269 -0.183820 -12.342067
v 5.059269 6.819341 -12.342067
v -4.336134 -0.183820 -12.342067
v -4.336134 6.819341 -12.342067
v 5.059269 -0.183820 -14.342067
v 5.059269 6.819341 -14.342067
v -4.336134 -0.183820 -14.342067
v -4.336134 6.819341 -14.342067
vn -0.0000 -0.0000 1.0000
vn -1.0000 -0.0000 -0.0000
vn -0.0000 -0.0000 -1.0000
vn 1.0000 -0.0000 -0.0000
vn -0.0000 -1.0000 -0.0000
vn -0.0000 1.0000 -0.0000
vt 0.375000 0.000000
vt 0.625000 0.000000
vt 0.625000 0.250000
vt 0.375000 0.250000
vt 0.625000 0.500000
vt 0.375000 0.500000
vt 0.625000 0.750000
vt 0.375000 0.750000
vt 0.625000 1.000000
vt 0.375000 1.000000
vt 0.125000 0.500000
vt 0.125000 0.750000
vt 0.875000 0.500000
vt 0.875000 0.750000
s 0
f 61/83/40 62/84/40 64/85/40 63/86/40
f 63/86/41 64/85/41 68/87/41 67/88/41
f 67/88/42 68/87/42 66/89/42 65/90/42
f 65/90/43 66/89/43 62/91/43 61/92/43
f 63/93/44 67/88/44 65/90/44 61/94/44
f 68/87/45 64/95/45 62/96/45 66/89/45
o Cube.006
v 5.756874 -0.744503 -10.132257
v 5.756874 1.397663 -10.132257
v 5.756874 -0.744503 -13.293138
v 5.756874 1.397663 -13.293138
v 7.756874 -0.744503 -10.132257
v 7.756874 1.397663 -10.132257
v 7.756874 -0.744503 -13.293138
v 7.756874 1.397663 -13.293138
vn -1.0000 -0.0000 -0.0000
vn -0.0000 -0.0000 -1.0000
vn 1.0000 -0.0000 -0.0000
vn -0.0000 -0.0000 1.0000
vn -0.0000 -1.0000 -0.0000
vn -0.0000 1.0000 -0.0000
vt 0.375000 0.000000
vt 0.625000 0.000000
vt 0.625000 0.250000
vt 0.375000 0.250000
vt 0.625000 0.500000
vt 0.375000 0.500000
vt 0.625000 0.750000
vt 0.375000 0.750000
vt 0.625000 1.000000
vt 0.375000 1.000000
vt 0.125000 0.500000
vt 0.125000 0.750000
vt 0.875000 0.500000
vt 0.875000 0.750000
s 0
f 69/97/46 70/98/46 72/99/46 71/100/46
f 71/100/47 72/99/47 76/101/47 75/102/47
f 75/102/48 76/101/48 74/103/48 73/104/48
f 73/104/49 74/103/49 70/105/49 69/106/49
f 71/107/50 75/102/50 73/104/50 69/108/50
f 76/101/51 72/109/51 70/110/51 74/103/51
o Cube.007
v 6.077418 -0.401173 -8.695364
v 6.077418 1.054333 -8.695364
v 6.077418 -0.401173 -10.843042
v 6.077418 1.054333 -10.843042
v 7.436330 -0.401173 -8.695364
v 7.436330 1.054333 -8.695364
v 7.436330 -0.401173 -10.843042
v 7.436330 1.054333 -10.843042
vn -1.0000 -0.0000 -0.0000
vn -0.0000 -0.0000 -1.0000
vn 1.0000 -0.0000 -0.0000
vn -0.0000 -0.0000 1.0000
vn -0.0000 -1.0000 -0.0000
vn -0.0000 1.0000 -0.0000
vt 0.375000 0.000000
vt 0.625000 0.000000
vt 0.625000 0.250000
vt 0.375000 0.250000
vt 0.625000 0.500000
vt 0.375000 0.500000
vt 0.625000 0.750000
vt 0.375000 0.750000
vt 0.625000 1.000000
vt 0.375000 1.000000
vt 0.125000 0.500000
vt 0.125000 0.750000
vt 0.875000 0.500000
vt 0.875000 0.750000
s 0
f 77/111/52 78/112/52 80/113/52 79/114/52
f 79/114/53 80/113/53 84/115/53 83/116/53
f 83/116/54 84/115/54 82/117/54 81/118/54
f 81/118/55 82/117/55 78/119/55 77/120/55
f 79/121/56 83/116/56 81/118/56 77/122/56
f 84/115/57 80/123/57 78/124/57 82/117/57
