# Blender 4.3.2
# www.blender.org
mtllib map.mtl
o Plane
v -14.447462 0.000000 14.447462
v 14.447462 0.000000 14.447462
v -14.447462 0.000000 -14.447462
v 14.447462 0.000000 -14.447462
v -2.240322 0.405475 -2.240322
v -2.240322 0.405475 2.240322
v 2.240322 0.405475 2.240322
v 2.240322 0.405475 -2.240322
v -3.359898 0.000000 -3.359898
v -3.359898 0.000000 3.359898
v 3.359898 0.000000 3.359898
v 3.359898 0.000000 -3.359898
v 34.905243 0.000000 14.447462
v 34.905243 0.000000 -14.447462
v 14.447462 -8.768125 -14.522813
v 34.911026 -8.768125 -14.522813
v 14.447462 -0.000000 -28.106766
v 14.447462 -8.768125 -28.106766
v 34.916805 -0.000000 -28.106766
v 34.916805 -8.768125 -28.106766
v 13.852806 -8.768125 -14.522813
v 13.852806 0.000000 -14.447462
v 13.852806 -8.768125 -28.106766
v 13.852806 -0.000000 -28.106766
vn -0.0000 1.0000 -0.0000
vn -0.3405 0.9402 -0.0000
vn -0.0000 0.9402 0.3405
vn 0.3405 0.9402 -0.0000
vn -0.0000 0.9402 -0.3405
vn -0.0000 0.0086 -1.0000
vn -0.0000 -1.0000 -0.0000
vn -0.0000 -0.0000 1.0000
vn -1.0000 -0.0003 -0.0006
vn 1.0000 -0.0000 -0.0000
vt 0.402450 0.402450
vt 0.597550 0.402450
vt 0.597550 0.597550
vt 0.402450 0.597550
vt 0.353700 0.353700
vt 0.353700 0.646300
vt 0.000000 1.000000
vt 0.000000 0.000000
vt 0.646300 0.353700
vt 1.000000 0.000000
vt 0.646300 0.646300
vt 1.000000 1.000000
s 0
usemtl floor
f 10/5/1 9/6/1 3/7/1 1/8/1
f 11/9/1 10/5/1 1/8/1 2/10/1
f 12/11/1 11/9/1 2/10/1 4/12/1
f 9/6/1 12/11/1 4/12/1 3/7/1
f 4/12/1 2/10/1 13/10/1 14/12/1
f 17/8/7 4/8/7 22/8/7 24/8/7
usemtl wall
f 6/1/1 7/2/1 8/3/1 5/4/1
f 6/1/2 5/4/2 9/6/2 10/5/2
f 7/2/3 6/1/3 10/5/3 11/9/3
f 8/3/4 7/2/4 11/9/4 12/11/4
f 5/4/5 8/3/5 12/11/5 9/6/5
f 4/12/6 14/12/6 16/12/6 15/12/6
f 17/12/8 18/12/8 20/12/8 19/12/8
f 16/12/9 14/12/9 19/12/9 20/12/9
f 20/12/1 18/12/1 15/12/1 16/12/1
f 22/12/10 21/12/10 23/12/10 24/12/10
f 15/12/1 18/12/1 23/12/1 21/12/1
f 18/12/8 17/12/8 24/12/8 23/12/8
f 4/12/6 15/12/6 21/12/6 22/12/6
o Cube
v -13.636120 -0.183820 4.697701
v -13.636120 6.819341 4.697701
v -13.636120 -0.183820 -4.697701
v -13.636120 6.819341 -4.697701
v -11.636120 -0.183820 4.697701
v -11.636120 6.819341 4.697701
v -11.636120 -0.183820 -4.697701
v -11.636120 6.819341 -4.697701
vn -1.0000 -0.0000 -0.0000
vn -0.0000 -0.0000 -1.0000
vn 1.0000 -0.0000 -0.0000
vn -0.0000 -0.0000 1.0000
vn -0.0000 -1.0000 -0.0000
vn -0.0000 1.0000 -0.0000
vt 0.375000 0.000000
vt 0.625000 0.000000
vt 0.625000 0.250000
vt 0.375000 0.250000
vt 0.625000 0.500000
vt 0.375000 0.500000
vt 0.625000 0.750000
vt 0.375000 0.750000
vt 0.625000 1.000000
vt 0.375000 1.000000
vt 0.125000 0.500000
vt 0.125000 0.750000
vt 0.875000 0.500000
vt 0.875000 0.750000
s 0
usemtl wall
f 25/13/11 26/14/11 28/15/11 27/16/11
f 27/16/12 28/15/12 32/17/12 31/18/12
f 31/18/13 32/17/13 30/19/13 29/20/13
f 29/20/14 30/19/14 26/21/14 25/22/14
f 27/23/15 31/18/15 29/20/15 25/24/15
f 32/17/16 28/25/16 26/26/16 30/19/16
o Cube.001
v -12.065959 2.832708 -5.537537
v -12.065959 3.802813 -5.537537
v -12.065959 2.832708 -14.932940
v -12.065959 3.802813 -14.932940
v -3.284189 2.832708 -5.537537
v -3.284189 3.802813 -5.537537
v -3.284189 2.832708 -14.932940
v -3.284189 3.802813 -14.932940
vn -1.0000 -0.0000 -0.0000
vn -0.0000 -0.0000 -1.0000
vn 1.0000 -0.0000 -0.0000
vn -0.0000 -0.0000 1.0000
vn -0.0000 -1.0000 -0.0000
vn -0.0000 1.0000 -0.0000
vt 0.375000 0.000000
vt 0.625000 0.000000
vt 0.625000 0.250000
vt 0.375000 0.250000
vt 0.625000 0.500000
vt 0.375000 0.500000
vt 0.625000 0.750000
vt 0.375000 0.750000
vt 0.625000 1.000000
vt 0.375000 1.000000
vt 0.125000 0.500000
vt 0.125000 0.750000
vt 0.875000 0.500000
vt 0.875000 0.750000
s 0
usemtl floor
f 33/27/17 34/28/17 36/29/17 35/30/17
f 35/30/18 36/29/18 40/31/18 39/32/18
f 39/32/19 40/31/19 38/33/19 37/34/19
f 37/34/20 38/33/20 34/35/20 33/36/20
f 35/37/21 39/32/21 37/34/21 33/38/21
f 40/31/22 36/39/22 34/40/22 38/33/22
o Cube.002
v -11.321476 -0.744503 6.965729
v -11.321476 1.397663 6.965729
v -11.321476 -0.744503 3.804849
v -11.321476 1.397663 3.804849
v -9.321476 -0.744503 6.965729
v -9.321476 1.397663 6.965729
v -9.321476 -0.744503 3.804849
v -9.321476 1.397663 3.804849
vn -1.0000 -0.0000 -0.0000
vn -0.0000 -0.0000 -1.0000
vn 1.0000 -0.0000 -0.0000
vn -0.0000 -0.0000 1.0000
vn -0.0000 -1.0000 -0.0000
vn -0.0000 1.0000 -0.0000
vt 0.375000 0.000000
vt 0.625000 0.000000
vt 0.625000 0.250000
vt 0.375000 0.250000
vt 0.625000 0.500000
vt 0.375000 0.500000
vt 0.625000 0.750000
vt 0.375000 0.750000
vt 0.625000 1.000000
vt 0.375000 1.000000
vt 0.125000 0.500000
vt 0.125000 0.750000
vt 0.875000 0.500000
vt 0.875000 0.750000
s 0
usemtl step
f 41/41/23 42/42/23 44/43/23 43/44/23
f 43/44/24 44/43/24 48/45/24 47/46/24
f 47/46/25 48/45/25 46/47/25 45/48/25
f 45/48/26 46/47/26 42/49/26 41/50/26
f 43/51/27 47/46/27 45/48/27 41/52/27
f 48/45/28 44/53/28 42/54/28 46/47/28
o Cube.003
v -11.000932 -0.401173 8.402622
v -11.000932 1.054333 8.402622
v -11.000932 -0.401173 6.254944
v -11.000932 1.054333 6.254944
v -9.642020 -0.401173 8.402622
v -9.642020 1.054333 8.402622
v -9.642020 -0.401173 6.254944
v -9.642020 1.054333 6.254944
vn -1.0000 -0.0000 -0.0000
vn -0.0000 -0.0000 -1.0000
vn 1.0000 -0.0000 -0.0000
vn -0.0000 -0.0000 1.0000
vn -0.0000 -1.0000 -0.0000
vn -0.0000 1.0000 -0.0000
vt 0.375000 0.000000
vt 0.625000 0.000000
vt 0.625000 0.250000
vt 0.375000 0.250000
vt 0.625000 0.500000
vt 0.375000 0.500000
vt 0.625000 0.750000
vt 0.375000 0.750000
vt 0.625000 1.000000
vt 0.375000 1.000000
vt 0.125000 0.500000
vt 0.125000 0.750000
vt 0.875000 0.500000
vt 0.875000 0.750000
s 0
usemtl step
f 49/55/29 50/56/29 52/57/29 51/58/29
f 51/58/30 52/57/30 56/59/30 55/60/30
f 55/60/31 56/59/31 54/61/31 53/62/31
f 53/62/32 54/61/32 50/63/32 49/64/32
f 51/65/33 55/60/33 53/62/33 49/66/33
f 56/59/34 52/67/34 50/68/34 54/61/34
o Cube.004
v 32.223839 -0.183820 4.697701
v 32.223839 6.819341 4.697701
v 32.223839 -0.183820 -4.697701
v 32.223839 6.819341 -4.697701
v 34.223839 -0.183820 4.697701
v 34.223839 6.819341 4.697701
v 34.223839 -0.183820 -4.697701
v 34.223839 6.819341 -4.697701
vn -1.0000 -0.0000 -0.0000
vn -0.0000 -0.0000 -1.0000
vn 1.0000 -0.0000 -0.0000
vn -0.0000 -0.0000 1.0000
vn -0.0000 -1.0000 -0.0000
vn -0.0000 1.0000 -0.0000
vt 0.375000 0.000000
vt 0.625000 0.000000
vt 0.625000 0.250000
vt 0.375000 0.250000
vt 0.625000 0.500000
vt 0.375000 0.500000
vt 0.625000 0.750000
vt 0.375000 0.750000
vt 0.625000 1.000000
vt 0.375000 1.000000
vt 0.125000 0.500000
vt 0.125000 0.750000
vt 0.875000 0.500000
vt 0.875000 0.750000
s 0
usemtl wall
f 57/69/35 58/70/35 60/71/35 59/72/35
f 59/72/36 60/71/36 64/73/36 63/74/36
f 63/74/37 64/73/37 62/75/37 61/76/37
f 61/76/38 62/75/38 58/77/38 57/78/38
f 59/79/39 63/74/39 61/76/39 57/80/39
f 64/73/40 60/81/40 58/82/40 62/75/40
o Cube.005
v 5.059269 -0.183820 -12.342067
v 5.059269 6.819341 -12.342067
v -4.336134 -0.183820 -12.342067
v -4.336134 6.819341 -12.342067
v 5.059269 -0.183820 -14.342067
v 5.059269 6.819341 -14.342067
v -4.336134 -0.183820 -14.342067
v -4.336134 6.819341 -14.342067
vn -0.0000 -0.0000 1.0000
vn -1.0000 -0.0000 -0.0000
vn -0.0000 -0.0000 -1.0000
vn 1.0000 -0.0000 -0.0000
vn -0.0000 -1.0000 -0.0000
vn -0.0000 1.0000 -0.0000
vt 0.375000 0.000000
vt 0.625000 0.000000
vt 0.625000 0.250000
vt 0.375000 0.250000
vt 0.625000 0.500000
vt 0.375000 0.500000
vt 0.625000 0.750000
vt 0.375000 0.750000
vt 0.625000 1.000000
vt 0.375000 1.000000
vt 0.125000 0.500000
vt 0.125000 0.750000
vt 0.875000 0.500000
vt 0.875000 0.750000
s 0
usemtl wall
f 65/83/41 66/84/41 68/85/41 67/86/41
f 67/86/42 68/85/42 72/87/42 71/88/42
f 71/88/43 72/87/43 70/89/43 69/90/43
f 69/90/44 70/89/44 66/91/44 65/92/44
f 67/93/45 71/88/45 69/90/45 65/94/45
f 72/87/46 68/95/46 66/96/46 70/89/46
o Cube.006
v 5.756874 -0.744503 -10.132257
v 5.756874 1.397663 -10.132257
v 5.756874 -0.744503 -13.293138
v 5.756874 1.397663 -13.293138
v 7.756874 -0.744503 -10.132257
v 7.756874 1.397663 -10.132257
v 7.756874 -0.744503 -13.293138
v 7.756874 1.397663 -13.293138
vn -1.0000 -0.0000 -0.0000
vn -0.0000 -0.0000 -1.0000
vn 1.0000 -0.0000 -0.0000
vn -0.0000 -0.0000 1.0000
vn -0.0000 -1.0000 -0.0000
vn -0.0000 1.0000 -0.0000
vt 0.375000 0.000000
vt 0.625000 0.000000
vt 0.625000 0.250000
vt 0.375000 0.250000
vt 0.625000 0.500000
vt 0.375000 0.500000
vt 0.625000 0.750000
vt 0.375000 0.750000
vt 0.625000 1.000000
vt 0.375000 1.000000
vt 0.125000 0.500000
vt 0.125000 0.750000
vt 0.875000 0.500000
vt 0.875000 0.750000
s 0
usemtl step
f 73/97/47 74/98/47 76/99/47 75/100/47
f 75/100/48 76/99/48 80/101/48 79/102/48
f 79/102/49 80/101/49 78/103/49 77/104/49
f 77/104/50 78/103/50 74/105/50 73/106/50
f 75/107/51 79/102/51 77/104/51 73/108/51
f 80/101/52 76/109/52 74/110/52 78/103/52
o Cube.007
v 6.077418 -0.401173 -8.695364
v 6.077418 1.054333 -8.695364
v 6.077418 -0.401173 -10.843042
v 6.077418 1.054333 -10.843042
v 7.436330 -0.401173 -8.695364
v 7.436330 1.054333 -8.695364
v 7.436330 -0.401173 -10.843042
v 7.436330 1.054333 -10.843042
vn -1.0000 -0.0000 -0.0000
vn -0.0000 -0.0000 -1.0000
vn 1.0000 -0.0000 -0.0000
vn -0.0000 -0.0000 1.0000
vn -0.0000 -1.0000 -0.0000
vn -0.0000 1.0000 -0.0000
vt 0.375000 0.000000
vt 0.625000 0.000000
vt 0.625000 0.250000
vt 0.375000 0.250000
vt 0.625000 0.500000
vt 0.375000 0.500000
vt 0.625000 0.750000
vt 0.375000 0.750000
vt 0.625000 1.000000
vt 0.375000 1.000000
vt 0.125000 0.500000
vt 0.125000 0.750000
vt 0.875000 0.500000
vt 0.875000 0.750000
s 0
usemtl step
f 81/111/53 82/112/53 84/113/53 83/114/53
f 83/114/54 84/113/54 88/115/54 87/116/54
f 87/116/55 88/115/55 86/117/55 85/118/55
f 85/118/56 86/117/56 82/119/56 81/120/56
f 83/121/57 87/116/57 85/118/57 81/122/57
f 88/115/58 84/123/58 82/124/58 86/117/58
