<?xml version="1.0" encoding="UTF-8" standalone="no"?>
<!-- Created with Inkscape (http://www.inkscape.org/) -->

<svg
   width="169.34741mm"
   height="102.29359mm"
   viewBox="0 0 169.34741 102.29359"
   version="1.1"
   id="svg1"
   sodipodi:docname="options_button.svg"
   inkscape:version="1.4 (86a8ad7, 2024-10-11)"
   xmlns:inkscape="http://www.inkscape.org/namespaces/inkscape"
   xmlns:sodipodi="http://sodipodi.sourceforge.net/DTD/sodipodi-0.dtd"
   xmlns:xlink="http://www.w3.org/1999/xlink"
   xmlns="http://www.w3.org/2000/svg"
   xmlns:svg="http://www.w3.org/2000/svg">
  <sodipodi:namedview
     id="namedview1"
     pagecolor="#505050"
     bordercolor="#ffffff"
     borderopacity="1"
     inkscape:showpageshadow="0"
     inkscape:pageopacity="0"
     inkscape:pagecheckerboard="1"
     inkscape:deskcolor="#505050"
     inkscape:document-units="mm"
     inkscape:zoom="1.3772587"
     inkscape:cx="300.59712"
     inkscape:cy="278.45168"
     inkscape:window-width="1920"
     inkscape:window-height="991"
     inkscape:window-x="-9"
     inkscape:window-y="-9"
     inkscape:window-maximized="1"
     inkscape:current-layer="layer1" />
  <defs
     id="defs1">
    <marker
       style="overflow:visible"
       id="ArrowTriangleStylized"
       refX="0"
       refY="0"
       orient="auto-start-reverse"
       inkscape:stockid="Stylized triangle arrow"
       markerWidth="1"
       markerHeight="1"
       viewBox="0 0 1 1"
       inkscape:isstock="true"
       inkscape:collect="always"
       preserveAspectRatio="xMidYMid">
      <path
         transform="scale(0.5)"
         style="fill:context-stroke;fill-rule:evenodd;stroke:context-stroke;stroke-width:1pt"
         d="m 6,0 c -3,1 -7,3 -9,5 0,0 0,-4 2,-5 -2,-1 -2,-5 -2,-5 2,2 6,4 9,5 z"
         id="path4" />
    </marker>
    <marker
       style="overflow:visible"
       id="DartArrow"
       refX="0"
       refY="0"
       orient="auto-start-reverse"
       inkscape:stockid="Dart arrow"
       markerWidth="1"
       markerHeight="1"
       viewBox="0 0 1 1"
       inkscape:isstock="true"
       inkscape:collect="always"
       preserveAspectRatio="xMidYMid"
       markerUnits="strokeWidth">
      <path
         style="fill:context-stroke;fill-rule:evenodd;stroke:none;stroke-width:0.5"
         d="M 0,0 -2.5,2.5 6.25,0 -2.5,-2.5 Z"
         id="path6" />
    </marker>
    <inkscape:path-effect
       effect="powerstroke"
       message=""
       id="path-effect12"
       is_visible="true"
       lpeversion="1.3"
       scale_width="1"
       interpolator_type="CubicBezierJohan"
       interpolator_beta="0.2"
       start_linecap_type="zerowidth"
       end_linecap_type="zerowidth"
       offset_points="3,0"
       linejoin_type="extrp_arc"
       miter_limit="4"
       not_jump="false"
       sort_points="true" />
    <pattern
       inkscape:collect="always"
       xlink:href="#Lizard scales"
       preserveAspectRatio="xMidYMid"
       id="pattern12"
       patternTransform="translate(517.61634,430.02323)" />
    <pattern
       patternUnits="userSpaceOnUse"
       preserveAspectRatio="xMidYMid"
       width="74.53426"
       height="42.717944"
       patternTransform="translate(517.61634,430.02323)"
       style="fill:#000000"
       id="Lizard scales"
       inkscape:collect="always"
       inkscape:isstock="true"
       inkscape:label="Lizard scales">
      <path
         id="path48318"
         style="color:#000000;mix-blend-mode:normal;fill-opacity:1;stroke-width:1.99404;stroke-linecap:round;paint-order:markers fill stroke"
         d="M 17.457713,0 C 16.094967,2.2617524 14.577487,4.6363465 12.960643,6.8790841 8.0534551,13.685783 1.4757921,18.073175 0,19.034608 v 4.718472 l 1.0279937,-0.633789 c 0,0 5.3450457,-3.265259 10.5832063,-8.618158 1.723729,3.350842 5.302035,9.970851 9.515792,15.815648 0.58012,0.804752 1.188737,1.582719 1.811868,2.331961 -0.715767,1.43904 -2.733317,5.519705 -5.481147,10.069202 h 4.562344 c 1.646211,-2.83172 2.902715,-5.330075 3.738973,-6.962468 3.083603,3.134895 6.005253,5.51935 8.026885,6.962468 h 6.962457 c 2.021593,-1.443118 4.944756,-3.827573 8.028408,-6.962468 0.836258,1.632393 2.092724,4.130748 3.738973,6.962468 h 4.560756 C 54.328717,38.168447 52.311205,34.087782 51.5954,32.648742 c 0.623169,-0.749242 1.231711,-1.527209 1.811868,-2.331961 4.21372,-5.844797 7.792063,-12.464806 9.51583,-15.815648 5.238123,5.352899 10.58468,8.618158 10.58468,8.618158 L 74.53426,23.75308 V 19.034608 C 73.058468,18.073175 66.480805,13.685783 61.573655,6.8790841 59.956811,4.6363465 58.439293,2.2617524 57.076509,0 h -4.560756 c 1.675729,2.8888479 3.68965,6.1304882 5.879887,9.1685896 0.550299,0.763268 1.125392,1.5017994 1.714847,2.2151884 -1.17857,2.358221 -5.15966,10.092204 -9.882709,16.643524 C 45.320882,34.833562 38.743521,39.219428 37.267124,40.181303 35.790728,39.219428 29.213367,34.833562 24.30652,28.027302 19.583471,21.475982 15.602381,13.741999 14.423773,11.383778 15.013228,10.670389 15.588359,9.9318576 16.13862,9.1685896 18.328894,6.1304882 20.344328,2.8888479 22.020057,0 Z m 16.328202,0 c 1.479231,1.0630413 2.453216,1.6678375 2.453216,1.6678375 l 1.027993,0.6353121 1.027994,-0.6353121 c 0,0 0.973984,-0.6047962 2.453254,-1.6678375 h -3.481248 z"
         sodipodi:nodetypes="csccccscccccccccccccccsccscscsccccccccccc" />
    </pattern>
    <rect
       x="142.21626"
       y="432.29636"
       width="772.39001"
       height="306.88681"
       id="rect2" />
    <inkscape:path-effect
       effect="fill_between_many"
       method="bsplinespiro"
       autoreverse="false"
       close="false"
       join="false"
       linkedpaths="#path12,0,1"
       id="path-effect13"
       is_visible="true"
       lpeversion="0" />
  </defs>
  <g
     inkscape:label="Layer 1"
     inkscape:groupmode="layer"
     id="layer1"
     transform="translate(-15.414909,-87.363545)">
    <path
       style="fill:#ffffff;fill-opacity:1;fill-rule:nonzero;stroke:none;stroke-width:1.5;stroke-linecap:round;stroke-linejoin:bevel;stroke-miterlimit:4.5;stroke-opacity:1;paint-order:fill markers stroke"
       d="m 24.782018,172.12936 c 2.70498,3.43919 4.767627,6.04174 5.931355,7.48023 0.416806,0.51522 0.646411,0.79214 0.768434,0.93503 0.0283,0.0331 0.05011,0.0583 0.06688,0.0772 0.0165,0.0187 0.02797,0.0312 0.03593,0.0396 0.0039,0.004 0.007,0.007 0.0093,0.01 0.0024,0.002 0.004,0.004 0.0052,0.005 -2.334362,-0.0602 -4.864272,-0.1277 -7.201354,-0.19002 0.159075,-3.45987 0.301398,-6.55543 0.384217,-8.35673 z m 0,0 c -0.08282,1.8013 -0.225142,4.89686 -0.384217,8.35673 2.337082,0.0623 4.866992,0.12979 7.204074,0.19211 -0.0039,-0.003 -0.0056,-0.005 -0.0079,-0.007 -0.0024,-0.002 -0.0054,-0.005 -0.0093,-0.01 -0.008,-0.008 -0.01943,-0.021 -0.03593,-0.0396 -0.01677,-0.019 -0.03858,-0.0441 -0.06688,-0.0772 -0.122023,-0.14289 -0.351628,-0.41981 -0.768434,-0.93503 -1.163728,-1.43849 -3.226375,-4.04104 -5.931355,-7.48023 z"
       id="path12"
       inkscape:path-effect="#path-effect12"
       inkscape:original-d="m 24.782018,172.12936 c 6.723803,8.54884 6.819857,8.54884 6.819857,8.54884 l -7.204074,-0.19211 z"
       inkscape:linked-fill="path13" />
    <rect
       style="fill:#000000;fill-opacity:1;fill-rule:evenodd;stroke:#ffffff;stroke-width:1.5;stroke-linecap:round;stroke-linejoin:bevel;stroke-miterlimit:4.5;stroke-dasharray:none;stroke-dashoffset:0;stroke-opacity:1;marker-start:url(#DartArrow);marker-mid:url(#DartArrow);marker-end:url(#ArrowTriangleStylized);paint-order:fill markers stroke"
       id="rect1"
       width="150.99741"
       height="84.143593"
       x="24.589909"
       y="96.438545"
       rx="0.2"
       ry="0.30000001" />
    <path
       d="m 233.84555,501.39826 q 23.95827,0 40.88531,15.03903 16.99214,15.03902 16.99214,36.32803 0,21.28901 -16.99214,36.32803 -16.92704,15.03903 -40.88531,15.03903 -24.02338,0 -40.95042,-15.03903 -16.92704,-15.03902 -16.92704,-36.32803 0,-21.28901 16.92704,-36.32803 16.92704,-15.03903 40.95042,-15.03903 z m -0.39063,30.66399 q -9.44008,0 -16.08069,6.05467 -6.6406,5.98957 -6.6406,14.45309 0,8.52862 6.6406,14.58329 6.64061,5.98957 16.08069,5.98957 9.44008,0 16.08069,-5.98957 6.64061,-6.05467 6.64061,-14.58329 0,-8.46352 -6.64061,-14.45309 -6.64061,-6.05467 -16.08069,-6.05467 z m 106.44504,-40.6249 q 2.47395,-0.0651 4.75259,-0.0651 43.42437,0 48.11186,28.64576 0.91145,5.98957 0.91145,11.19789 0,21.1588 -15.95048,29.62232 -17.12235,9.04945 -30.40356,9.04945 -2.27864,0 -4.36197,-0.26041 2.27864,24.54421 2.27864,26.56243 -2.79947,14.45309 -14.45309,14.45309 h -1.49739 q -14.25778,0 -16.73173,-27.34368 -2.21354,-20.50776 -2.21354,-31.11972 0,-11.13278 0.71615,-25.06504 l -3.77603,0.78125 h -7.61717 q -7.94269,0 -11.3932,-12.95569 v -2.27864 q 0,-15.75517 36.45824,-19.72652 3.97134,-0.78124 15.16923,-1.49739 z m 1.5625,49.21863 q 14.6484,-4.8828 14.6484,-9.37498 v -0.19531 q -0.32552,-4.62239 -13.93226,-5.92447 z m 102.79921,-47.72124 q 3.05989,-0.1302 5.79426,-0.1302 28.38534,0 28.38534,14.97392 v 1.6276 q 0,12.69528 -15.23434,13.93225 h -6.05467 q -1.49739,0.19531 -1.49739,1.49739 0,4.8828 -0.52083,61.52329 -3.97135,12.17444 -15.16924,12.17444 -15.23433,0 -15.23433,-23.56765 -0.26042,-11.71872 -0.26042,-21.1588 0,-17.12235 0.84635,-26.75774 -7.61716,3.12499 -9.8958,3.12499 h -1.5625 q -13.67184,-2.79947 -13.67184,-16.73173 0,-16.99214 44.07541,-20.50776 z m 63.4764,-9.8958 q 5.46874,0 8.91925,8.46352 1.17187,-0.0651 2.27864,-0.0651 8.52862,0 8.52862,6.05467 v 1.4974 q 0,1.43228 -5.85936,8.72393 2.34375,5.27343 2.34375,9.04946 0,0.84635 -0.13021,1.6276 -0.65104,4.16665 -5.33853,4.16665 -4.68749,0 -12.10934,-5.33852 -7.74738,6.11977 -10.93747,6.11977 -3.1901,0 -4.8828,-2.27864 -1.04167,-1.36718 -1.04167,-3.38541 0,-1.36718 0.45573,-2.99478 1.10677,-4.03645 2.34374,-6.5755 -6.5755,-6.64061 -6.5755,-11.3932 0,-3.97135 12.17445,-5.27343 5.14321,-8.39841 9.8307,-8.39841 z m -7.55206,49.41393 h 6.05467 q 11.52341,1.10677 11.52341,10.87237 0,0.97656 -0.13021,2.01822 v 2.27864 q -2.27864,14.38799 -2.27864,20.50776 v 9.11456 q 1.49739,18.94527 1.49739,19.72652 0,10.41664 -15.16923,12.89059 -11.4583,-1.6276 -14.12757,-15.82027 -2.60416,-14.25778 -2.60416,-19.85672 0,-41.73167 15.23434,-41.73167 z m 69.40088,4.55728 q -2.27864,-0.19531 -4.29686,-0.19531 -11.263,0 -11.263,7.09634 0,1.36718 0.39063,2.92968 0,4.75259 7.61717,11.3932 -3.05989,11.26299 -3.05989,12.17444 2.08333,6.05468 7.61717,6.05468 1.36718,0 18.22912,-9.11456 13.0859,9.11456 18.22912,9.11456 6.05467,-1.95312 6.05467,-6.83592 v -0.78125 l -3.77603,-12.10935 q 3.3854,-3.2552 6.05467,-11.3932 0,-7.55206 -13.67184,-9.11456 -7.42186,-13.0208 -13.86715,-13.0208 -5.85936,0 -14.25778,13.80205 z m 15.82027,-35.61189 q 23.95827,0 40.88531,15.03903 16.99215,15.03902 16.99215,36.32803 0,21.28901 -16.99215,36.32803 -16.92704,15.03903 -40.88531,15.03903 -24.02337,0 -40.95041,-15.03903 -16.92704,-15.03902 -16.92704,-36.32803 0,-21.28901 16.92704,-36.32803 16.92704,-15.03903 40.95041,-15.03903 z m 148.5022,-7.55206 q 12.10935,3.64582 15.42965,30.14315 2.73437,22.46088 2.73437,42.77333 0,3.58072 -0.0651,7.09634 -0.58594,23.43744 -17.12236,26.88795 -14.51819,0 -32.6822,-24.28379 -20.18224,-23.56765 -21.28901,-23.56765 h -0.71615 l -0.78124,1.56249 v 34.17961 q 0,9.50518 -10.61196,13.67184 h -7.61717 q -11.3932,-3.58072 -11.3932,-13.67184 v -38.02074 q 0,-31.57544 9.11456,-37.95563 5.27343,-3.77604 9.89581,-3.77604 h 3.05989 q 14.5833,0 44.20562,38.9973 1.43229,0.71614 2.27864,0.71614 l 0.71614,-1.49739 q -3.64582,-20.05203 -3.64582,-31.90096 0,-14.58329 5.53384,-16.79683 3.12499,-4.55728 12.95569,-4.55728 z m 81.38004,-4.68749 q 31.05461,0 42.57801,18.94527 1.36719,3.12499 1.36719,6.31508 0,2.14844 -0.65104,4.36197 -1.88802,9.50519 -11.3932,11.3932 -10.87237,0 -14.19267,-4.16665 -3.2552,-4.23176 -6.83592,-5.33853 -3.51562,-1.17187 -9.30988,-1.17187 h -2.27864 q -20.70307,2.01822 -22.7864,9.8958 6.24999,2.08333 41.01552,6.83592 34.1796,7.35676 34.1796,29.62232 0,29.03639 -50.91132,37.95564 -6.64061,0.78125 -11.3932,0.78125 -31.11972,0 -31.11972,-18.22912 2.73437,-14.45309 13.67184,-14.45309 h 2.99479 q 9.89581,2.27864 12.95569,2.27864 h 5.27343 q 22.7864,-2.73437 22.7864,-6.83592 -4.36197,-2.79948 -45.5728,-7.61717 -10.35154,-1.43229 -19.66141,-10.28643 -7.42186,-6.96613 -7.42186,-15.49476 0,-2.21353 0.52084,-4.55728 6.18488,-36.13272 56.18475,-40.23427 z"
       id="text1"
       style="font-size:133.333px;font-family:Starborn;-inkscape-font-specification:Starborn;white-space:pre;shape-padding:30.4954;fill:#969696;fill-rule:evenodd;stroke:#ffffff;stroke-width:5.66929;stroke-linecap:round;stroke-linejoin:bevel;stroke-miterlimit:4.5;paint-order:fill markers stroke"
       transform="matrix(0.17207384,0,0,0.28753309,9.6275445,-19.657888)"
       aria-label="Options" />
  </g>
</svg>
