<?xml version="1.0" encoding="UTF-8" standalone="no"?>
<!-- Created with Inkscape (http://www.inkscape.org/) -->

<svg
   width="169.34741mm"
   height="102.29359mm"
   viewBox="0 0 169.34741 102.29359"
   version="1.1"
   id="svg1"
   sodipodi:docname="scan_button.svg"
   inkscape:version="1.4 (86a8ad7, 2024-10-11)"
   xmlns:inkscape="http://www.inkscape.org/namespaces/inkscape"
   xmlns:sodipodi="http://sodipodi.sourceforge.net/DTD/sodipodi-0.dtd"
   xmlns:xlink="http://www.w3.org/1999/xlink"
   xmlns="http://www.w3.org/2000/svg"
   xmlns:svg="http://www.w3.org/2000/svg">
  <sodipodi:namedview
     id="namedview1"
     pagecolor="#505050"
     bordercolor="#ffffff"
     borderopacity="1"
     inkscape:showpageshadow="0"
     inkscape:pageopacity="0"
     inkscape:pagecheckerboard="1"
     inkscape:deskcolor="#505050"
     inkscape:document-units="mm"
     inkscape:zoom="1.3772587"
     inkscape:cx="300.59712"
     inkscape:cy="147.0312"
     inkscape:window-width="1920"
     inkscape:window-height="991"
     inkscape:window-x="-9"
     inkscape:window-y="-9"
     inkscape:window-maximized="1"
     inkscape:current-layer="layer1" />
  <defs
     id="defs1">
    <rect
       x="53.729921"
       y="64.621121"
       width="532.94273"
       height="267.92352"
       id="rect4" />
    <rect
       x="121.98144"
       y="418.22208"
       width="591.02911"
       height="319.47519"
       id="rect3" />
    <marker
       style="overflow:visible"
       id="ArrowTriangleStylized"
       refX="0"
       refY="0"
       orient="auto-start-reverse"
       inkscape:stockid="Stylized triangle arrow"
       markerWidth="1"
       markerHeight="1"
       viewBox="0 0 1 1"
       inkscape:isstock="true"
       inkscape:collect="always"
       preserveAspectRatio="xMidYMid">
      <path
         transform="scale(0.5)"
         style="fill:context-stroke;fill-rule:evenodd;stroke:context-stroke;stroke-width:1pt"
         d="m 6,0 c -3,1 -7,3 -9,5 0,0 0,-4 2,-5 -2,-1 -2,-5 -2,-5 2,2 6,4 9,5 z"
         id="path4" />
    </marker>
    <marker
       style="overflow:visible"
       id="DartArrow"
       refX="0"
       refY="0"
       orient="auto-start-reverse"
       inkscape:stockid="Dart arrow"
       markerWidth="1"
       markerHeight="1"
       viewBox="0 0 1 1"
       inkscape:isstock="true"
       inkscape:collect="always"
       preserveAspectRatio="xMidYMid"
       markerUnits="strokeWidth">
      <path
         style="fill:context-stroke;fill-rule:evenodd;stroke:none;stroke-width:0.5"
         d="M 0,0 -2.5,2.5 6.25,0 -2.5,-2.5 Z"
         id="path6" />
    </marker>
    <inkscape:path-effect
       effect="powerstroke"
       message=""
       id="path-effect12"
       is_visible="true"
       lpeversion="1.3"
       scale_width="1"
       interpolator_type="CubicBezierJohan"
       interpolator_beta="0.2"
       start_linecap_type="zerowidth"
       end_linecap_type="zerowidth"
       offset_points="3,0"
       linejoin_type="extrp_arc"
       miter_limit="4"
       not_jump="false"
       sort_points="true" />
    <pattern
       inkscape:collect="always"
       xlink:href="#Lizard scales"
       preserveAspectRatio="xMidYMid"
       id="pattern12"
       patternTransform="translate(517.61634,430.02323)" />
    <pattern
       patternUnits="userSpaceOnUse"
       preserveAspectRatio="xMidYMid"
       width="74.53426"
       height="42.717944"
       patternTransform="translate(517.61634,430.02323)"
       style="fill:#000000"
       id="Lizard scales"
       inkscape:collect="always"
       inkscape:isstock="true"
       inkscape:label="Lizard scales">
      <path
         id="path48318"
         style="color:#000000;mix-blend-mode:normal;fill-opacity:1;stroke-width:1.99404;stroke-linecap:round;paint-order:markers fill stroke"
         d="M 17.457713,0 C 16.094967,2.2617524 14.577487,4.6363465 12.960643,6.8790841 8.0534551,13.685783 1.4757921,18.073175 0,19.034608 v 4.718472 l 1.0279937,-0.633789 c 0,0 5.3450457,-3.265259 10.5832063,-8.618158 1.723729,3.350842 5.302035,9.970851 9.515792,15.815648 0.58012,0.804752 1.188737,1.582719 1.811868,2.331961 -0.715767,1.43904 -2.733317,5.519705 -5.481147,10.069202 h 4.562344 c 1.646211,-2.83172 2.902715,-5.330075 3.738973,-6.962468 3.083603,3.134895 6.005253,5.51935 8.026885,6.962468 h 6.962457 c 2.021593,-1.443118 4.944756,-3.827573 8.028408,-6.962468 0.836258,1.632393 2.092724,4.130748 3.738973,6.962468 h 4.560756 C 54.328717,38.168447 52.311205,34.087782 51.5954,32.648742 c 0.623169,-0.749242 1.231711,-1.527209 1.811868,-2.331961 4.21372,-5.844797 7.792063,-12.464806 9.51583,-15.815648 5.238123,5.352899 10.58468,8.618158 10.58468,8.618158 L 74.53426,23.75308 V 19.034608 C 73.058468,18.073175 66.480805,13.685783 61.573655,6.8790841 59.956811,4.6363465 58.439293,2.2617524 57.076509,0 h -4.560756 c 1.675729,2.8888479 3.68965,6.1304882 5.879887,9.1685896 0.550299,0.763268 1.125392,1.5017994 1.714847,2.2151884 -1.17857,2.358221 -5.15966,10.092204 -9.882709,16.643524 C 45.320882,34.833562 38.743521,39.219428 37.267124,40.181303 35.790728,39.219428 29.213367,34.833562 24.30652,28.027302 19.583471,21.475982 15.602381,13.741999 14.423773,11.383778 15.013228,10.670389 15.588359,9.9318576 16.13862,9.1685896 18.328894,6.1304882 20.344328,2.8888479 22.020057,0 Z m 16.328202,0 c 1.479231,1.0630413 2.453216,1.6678375 2.453216,1.6678375 l 1.027993,0.6353121 1.027994,-0.6353121 c 0,0 0.973984,-0.6047962 2.453254,-1.6678375 h -3.481248 z"
         sodipodi:nodetypes="csccccscccccccccccccccsccscscsccccccccccc" />
    </pattern>
    <rect
       x="142.21626"
       y="432.29636"
       width="647.34967"
       height="244.08286"
       id="rect2" />
    <inkscape:path-effect
       effect="fill_between_many"
       method="bsplinespiro"
       autoreverse="false"
       close="false"
       join="false"
       linkedpaths="#path12,0,1"
       id="path-effect13"
       is_visible="true"
       lpeversion="0" />
    <rect
       x="53.729921"
       y="64.621121"
       width="532.94273"
       height="267.92352"
       id="rect5" />
    <rect
       x="53.729921"
       y="64.621121"
       width="532.94273"
       height="267.92352"
       id="rect6" />
    <rect
       x="53.729921"
       y="64.621121"
       width="532.94273"
       height="267.92352"
       id="rect7" />
  </defs>
  <g
     inkscape:label="Layer 1"
     inkscape:groupmode="layer"
     id="layer1"
     transform="translate(-15.414909,-87.363545)">
    <path
       style="fill:#ffffff;fill-opacity:1;fill-rule:nonzero;stroke:none;stroke-width:1.5;stroke-linecap:round;stroke-linejoin:bevel;stroke-miterlimit:4.5;stroke-opacity:1;paint-order:fill markers stroke"
       d="m 24.782018,172.12936 c 2.70498,3.43919 4.767627,6.04174 5.931355,7.48023 0.416806,0.51522 0.646411,0.79214 0.768434,0.93503 0.0283,0.0331 0.05011,0.0583 0.06688,0.0772 0.0165,0.0187 0.02797,0.0312 0.03593,0.0396 0.0039,0.004 0.007,0.007 0.0093,0.01 0.0024,0.002 0.004,0.004 0.0052,0.005 -2.334362,-0.0602 -4.864272,-0.1277 -7.201354,-0.19002 0.159075,-3.45987 0.301398,-6.55543 0.384217,-8.35673 z m 0,0 c -0.08282,1.8013 -0.225142,4.89686 -0.384217,8.35673 2.337082,0.0623 4.866992,0.12979 7.204074,0.19211 -0.0039,-0.003 -0.0056,-0.005 -0.0079,-0.007 -0.0024,-0.002 -0.0054,-0.005 -0.0093,-0.01 -0.008,-0.008 -0.01943,-0.021 -0.03593,-0.0396 -0.01677,-0.019 -0.03858,-0.0441 -0.06688,-0.0772 -0.122023,-0.14289 -0.351628,-0.41981 -0.768434,-0.93503 -1.163728,-1.43849 -3.226375,-4.04104 -5.931355,-7.48023 z"
       id="path12"
       inkscape:path-effect="#path-effect12"
       inkscape:original-d="m 24.782018,172.12936 c 6.723803,8.54884 6.819857,8.54884 6.819857,8.54884 l -7.204074,-0.19211 z"
       inkscape:linked-fill="path13" />
    <rect
       style="fill:#000000;fill-opacity:1;fill-rule:evenodd;stroke:#ffffff;stroke-width:1.5;stroke-linecap:round;stroke-linejoin:bevel;stroke-miterlimit:4.5;stroke-dasharray:none;stroke-dashoffset:0;stroke-opacity:1;marker-start:url(#DartArrow);marker-mid:url(#DartArrow);marker-end:url(#ArrowTriangleStylized);paint-order:fill markers stroke"
       id="rect1"
       width="150.99741"
       height="84.143593"
       x="24.589909"
       y="96.438545"
       rx="0.2"
       ry="0.30000001" />
    <path
       d="m 233.45492,532.06225 q -9.44008,0 -16.08069,6.05467 -6.6406,5.98957 -6.6406,14.45309 0,8.52862 6.6406,14.58329 6.64061,5.98957 16.08069,5.98957 9.44008,0 16.08069,-5.98957 6.64061,-6.05467 6.64061,-14.58329 0,-8.46352 -6.64061,-14.45309 -6.64061,-6.05467 -16.08069,-6.05467 z m 23.56765,67.96858 q -10.61195,4.10155 -23.17702,4.10155 -24.02338,0 -40.95042,-15.03903 -16.92704,-15.03902 -16.92704,-36.32803 0,-21.28901 16.92704,-36.32803 16.92704,-15.03903 40.95042,-15.03903 23.95827,0 40.88531,15.03903 16.99214,15.03902 16.99214,36.32803 0,15.95048 -9.57028,28.45045 7.29164,3.12499 9.57028,9.57029 0.39063,1.36718 0.39063,2.66926 0,5.27343 -7.03123,11.00258 -6.4453,5.27342 -11.58852,5.27342 -1.95312,0 -3.64582,-0.78125 -6.38019,-2.73436 -12.82549,-8.91924 z m 61.39307,-104.0362 h 4.49218 q 10.15622,0 12.9557,13.67184 v 2.27864 q -6.83592,21.74474 -6.83592,30.33847 -0.78125,2.60416 -0.78125,9.8958 0,18.22912 8.33331,18.22912 11.78382,0 22.07026,-15.23433 9.8307,-13.60674 15.95048,-50.84623 4.8828,-7.61716 14.38798,-7.61716 14.45309,0 14.45309,24.34889 0,7.22655 4.55728,69.07535 -4.42707,11.3932 -13.67184,11.3932 h -2.27864 q -9.44008,0 -13.67184,-12.17445 0,-6.83592 -2.27864,-6.83592 -20.96349,18.22912 -37.95563,18.22912 h -2.27864 q -24.73952,0 -34.96085,-28.05983 -2.27864,-7.42185 -2.27864,-19.79161 v -4.55728 q 3.2552,-52.34362 19.79161,-52.34362 z m 118.87991,-12.95569 q 5.46874,0 8.91925,8.46352 1.17187,-0.0651 2.27864,-0.0651 8.52862,0 8.52862,6.05467 v 1.4974 q 0,1.43228 -5.85936,8.72393 2.34375,5.27343 2.34375,9.04946 0,0.84635 -0.13021,1.6276 -0.65104,4.16665 -5.33853,4.16665 -4.68749,0 -12.10934,-5.33852 -7.74738,6.11977 -10.93747,6.11977 -3.1901,0 -4.8828,-2.27864 -1.04167,-1.36718 -1.04167,-3.38541 0,-1.36718 0.45573,-2.99478 1.10677,-4.03645 2.34374,-6.5755 -6.5755,-6.64061 -6.5755,-11.3932 0,-3.97135 12.17445,-5.27343 5.14321,-8.39841 9.8307,-8.39841 z m -7.55206,49.41393 h 6.05467 q 11.52341,1.10677 11.52341,10.87237 0,0.97656 -0.13021,2.01822 v 2.27864 q -2.27864,14.38799 -2.27864,20.50776 v 9.11456 q 1.49739,18.94527 1.49739,19.72652 0,10.41664 -15.16923,12.89059 -11.4583,-1.6276 -14.12757,-15.82027 -2.60416,-14.25778 -2.60416,-19.85672 0,-41.73167 15.23434,-41.73167 z m 77.86437,-39.51813 q 3.05989,-0.1302 5.79426,-0.1302 28.38534,0 28.38534,14.97392 v 1.6276 q 0,12.69528 -15.23434,13.93225 h -6.05467 q -1.49739,0.19531 -1.49739,1.49739 0,4.8828 -0.52083,61.52329 -3.97135,12.17444 -15.16923,12.17444 -15.23434,0 -15.23434,-23.56765 -0.26042,-11.71872 -0.26042,-21.1588 0,-17.12235 0.84636,-26.75774 -7.61717,3.12499 -9.89581,3.12499 h -1.5625 q -13.67184,-2.79947 -13.67184,-16.73173 0,-16.99214 44.07541,-20.50776 z"
       id="text1"
       style="font-size:133.333px;font-family:Starborn;-inkscape-font-specification:Starborn;white-space:pre;shape-padding:30.4954;display:none;fill:#969696;fill-rule:evenodd;stroke:#ffffff;stroke-width:5.66929;stroke-linecap:round;stroke-linejoin:bevel;stroke-miterlimit:4.5;paint-order:fill markers stroke"
       inkscape:label="quit"
       transform="matrix(0.24855077,0,0,0.36877055,10.613756,-64.050116)"
       aria-label="Quit" />
    <path
       d="m 159.41527,455.20035 q 41.66656,0 63.80192,35.67699 4.55728,9.7005 4.55728,19.01037 v 5.27343 q 0,42.3827 -85.02583,50.91132 h -0.78124 q -16.73173,0 -16.73173,-15.95048 0,-6.11977 8.39841,-13.67184 -3.05988,-23.50254 -3.05988,-35.67699 v -12.89059 q 0,-24.414 18.22912,-31.18482 5.72915,-1.49739 10.61195,-1.49739 z m 2.27864,30.40357 -1.49739,2.27864 v 6.83592 q 0.71614,31.77075 4.55728,37.17438 h 0.71614 q 32.68221,-7.03123 32.68221,-19.01036 0,-19.4661 -32.68221,-27.27858 z m 139.32256,-30.9244 q 17.8385,2.01822 23.76296,13.41142 2.34375,4.62239 2.34375,8.39842 0,5.66405 -5.27343,9.50518 -5.40363,3.90624 -10.61195,3.90624 -3.2552,0 -6.4453,-1.56249 -4.8828,-2.40885 -10.87237,-2.40885 -4.10155,0 -8.72393,1.10677 -11.3932,2.79947 -11.3932,6.90102 0,1.36719 4.03645,1.36719 2.21353,0 5.59894,-0.45573 2.01822,-0.19531 3.77603,-0.19531 6.83592,0 10.67706,3.45051 3.90624,3.58072 3.90624,10.54685 0,1.49739 -0.19531,3.19009 -1.04167,9.37498 -13.21612,13.73695 -19.92182,4.55728 -19.92182,8.59372 0.26042,1.4974 1.49739,1.4974 h 1.5625 q 20.50776,0 45.5728,-16.66663 2.01822,-0.39062 3.84114,-0.39062 10.93747,0 13.21611,14.90881 0.26041,1.75781 0.26041,3.38541 0,14.90882 -22.13536,22.39578 -20.76817,7.03123 -40.03896,7.03123 -3.51561,0 -6.96613,-0.26042 -22.52598,-1.49739 -30.20825,-22.7864 -0.78125,-4.10155 -0.78125,-9.11456 0,-11.32809 9.89581,-22.00515 -5.33853,-8.72393 -5.33853,-19.01037 0,-20.96348 22.13536,-30.72908 18.35933,-8.0729 33.85408,-8.0729 3.12499,0 6.18488,0.32552 z m 59.83058,-5.53384 h 2.99478 q 11.13279,0 13.67184,15.16923 -4.55728,54.29674 -4.55728,62.23943 l 2.27864,1.56249 q 19.85672,-3.05989 23.56765,-3.05989 15.16923,2.79948 15.16923,15.16924 0,14.25777 -18.22912,15.23433 -19.40099,2.99479 -24.28379,2.99479 -19.27078,0 -26.56243,-14.38799 -1.5625,-5.27342 -1.5625,-9.11456 v -9.89581 q 3.1901,-71.35398 7.61717,-71.35398 5.01301,-4.55728 9.89581,-4.55728 z m 119.79135,5.27342 q 13.151,0 14.45308,15.95048 0,3.64583 -14.45308,33.39836 -17.64319,50.91132 -28.84108,50.91132 l -4.55728,0.78125 q -13.86715,0 -25.84628,-27.34368 l -32.61711,-52.40872 -0.78125,-4.55728 q 2.53906,-15.16923 15.23434,-15.16923 12.36976,0 22.00515,21.2239 l 19.72651,30.40357 h 0.78125 q 1.49739,-1.43229 17.44787,-39.51813 6.57551,-13.67184 17.44788,-13.67184 z m 80.27324,0.26042 q 17.83849,2.01822 23.76296,13.41142 2.34374,4.62239 2.34374,8.39842 0,5.66405 -5.27342,9.50518 -5.40364,3.90624 -10.61196,3.90624 -3.2552,0 -6.44529,-1.56249 -4.8828,-2.40885 -10.87237,-2.40885 -4.10155,0 -8.72394,1.10677 -11.3932,2.79947 -11.3932,6.90102 0,1.36719 4.03645,1.36719 2.21354,0 5.59895,-0.45573 2.01822,-0.19531 3.77603,-0.19531 6.83592,0 10.67705,3.45051 3.90624,3.58072 3.90624,10.54685 0,1.49739 -0.19531,3.19009 -1.04166,9.37498 -13.21611,13.73695 -19.92182,4.55728 -19.92182,8.59372 0.26041,1.4974 1.49739,1.4974 h 1.56249 q 20.50776,0 45.5728,-16.66663 2.01823,-0.39062 3.84114,-0.39062 10.93747,0 13.21611,14.90881 0.26042,1.75781 0.26042,3.38541 0,14.90882 -22.13536,22.39578 -20.76818,7.03123 -40.03896,7.03123 -3.51562,0 -6.96613,-0.26042 -22.52598,-1.49739 -30.20826,-22.7864 -0.78124,-4.10155 -0.78124,-9.11456 0,-11.32809 9.8958,-22.00515 -5.33852,-8.72393 -5.33852,-19.01037 0,-20.96348 22.13536,-30.72908 18.35932,-8.0729 33.85408,-8.0729 3.12499,0 6.18488,0.32552 z"
       id="text2"
       style="font-size:133.333px;font-family:Starborn;-inkscape-font-specification:Starborn;white-space:pre;display:none;fill:#949494;fill-opacity:1;fill-rule:evenodd;stroke:#ffffff;stroke-width:5.66929;stroke-linecap:round;stroke-linejoin:round;stroke-miterlimit:4.5;stroke-opacity:1;paint-order:markers fill stroke"
       transform="matrix(0.26458333,0,0,0.26458333,4.610608,4.2263907)"
       aria-label="Delve" />
    <path
       d="m 56.445911,124.30843 q 8.21653,0 11.26543,5.0126 0.36174,0.82682 0.36174,1.67087 0,0.56844 -0.17226,1.1541 -0.49953,2.51492 -3.01445,3.01445 -2.87664,0 -3.75514,-1.10242 -0.86127,-1.11966 -1.80867,-1.41249 -0.93017,-0.31006 -2.46324,-0.31006 h -0.60289 q -5.47769,0.53399 -6.0289,2.61827 1.65364,0.55121 10.85202,1.80867 9.04336,1.94647 9.04336,7.83757 0,7.68254 -13.47029,10.04243 -1.757,0.2067 -3.01445,0.2067 -8.23376,0 -8.23376,-4.82312 0.72347,-3.82404 3.61734,-3.82404 h 0.79237 q 2.61827,0.60289 3.42786,0.60289 h 1.39526 q 6.0289,-0.72347 6.0289,-1.80867 -1.1541,-0.7407 -12.0578,-2.01538 -2.73884,-0.37896 -5.20208,-2.72162 -1.9637,-1.84312 -1.9637,-4.09965 0,-0.58567 0.1378,-1.20578 1.63642,-9.56012 14.86555,-10.64532 z m 30.47179,1.60197 q 6.56289,0 10.04243,6.83849 v 1.20578 q 0,3.27284 -4.22023,3.61734 -1.757,0 -4.40971,-3.22115 -0.67179,-0.39619 -1.20578,-0.39619 h -0.8096 q -4.49583,0 -6.2356,4.82312 l -0.18948,1.18856 v 1.20578 q 0.96462,5.23653 4.40971,5.23653 2.34266,0 7.64809,-3.22116 0.32728,-0.2067 0.99907,-0.2067 h 0.60289 q 3.61735,0.70624 3.61735,3.61734 v 0.60289 q 0,4.03075 -10.04243,6.8385 -1.05075,0.2067 -2.41156,0.2067 h -1.20578 q -7.28636,0 -10.85203,-8.85387 -0.80959,-2.85942 -0.80959,-4.82312 0,-8.66439 8.23376,-13.24636 3.10057,-1.41248 6.83849,-1.41248 z m 30.282309,-3.06613 q 2.94556,0.65457 6.01168,7.88925 0.43064,-0.0172 0.82682,-0.0172 7.44139,0 7.44139,3.34174 0,0.60289 -0.24116,1.2919 0,2.34266 -4.22023,5.21931 l -0.18948,0.41341 q 2.20486,6.89017 2.20486,8.23376 v 1.41248 q -0.72347,3.61734 -3.61734,3.61734 h -0.8096 q -2.20485,0 -9.43954,-5.63271 l -8.04427,5.02982 q -0.34451,0.18948 -0.79237,0.18948 h -1.60197 q -2.53214,-0.49953 -3.01445,-3.01445 v -1.60196 l 1.99815,-7.44139 q -0.0172,-0.62012 -4.409709,-5.0126 l -0.41341,-1.41249 v -1.20578 q 0,-2.82497 3.617339,-3.80682 5.37434,0.18948 6.63179,0.18948 1.34359,-1.73977 3.22116,-5.42601 1.53306,-2.35988 3.78959,-2.35988 0.49954,0 1.05075,0.10335 z m 38.2577,2.70439 q 3.20393,0.96463 4.08242,7.97538 0.72347,5.94277 0.72347,11.31711 0,0.9474 -0.0172,1.87757 -0.15503,6.20115 -4.53029,7.1141 -3.84127,0 -8.64717,-6.42508 -5.33988,-6.23561 -5.63271,-6.23561 h -0.18948 l -0.20671,0.41341 v 9.04335 q 0,2.51491 -2.80774,3.61734 h -2.01538 q -3.01445,-0.9474 -3.01445,-3.61734 v -10.05965 q 0,-8.35434 2.41156,-10.04243 1.39526,-0.99907 2.61827,-0.99907 h 0.80959 q 3.8585,0 11.69607,10.31803 0.37896,0.18948 0.60289,0.18948 l 0.18948,-0.39618 q -0.96462,-5.30544 -0.96462,-8.44047 0,-3.85849 1.46416,-4.44416 0.82682,-1.20578 3.42786,-1.20578 z"
       id="text3"
       style="font-size:133.333px;font-family:Starborn;-inkscape-font-specification:Starborn;white-space:pre;fill:#949494;fill-rule:evenodd;stroke:#ffffff;stroke-width:1.5;stroke-linecap:round;stroke-linejoin:round;stroke-miterlimit:4.5;paint-order:markers fill stroke"
       aria-label="Scan" />
    <path
       d="m 113.69125,90.986838 q 31.05461,0 42.57802,18.945262 1.36718,3.12499 1.36718,6.31509 0,2.14843 -0.65104,4.36197 -1.88801,9.50518 -11.3932,11.3932 -10.87236,0 -14.19267,-4.16666 -3.2552,-4.23176 -6.83592,-5.33853 -3.51561,-1.17187 -9.30987,-1.17187 h -2.27864 q -20.703073,2.01823 -22.786401,9.89581 6.249984,2.08333 41.015521,6.83592 34.1796,7.35675 34.1796,29.62232 0,29.03638 -50.91133,37.95563 -6.64061,0.78125 -11.3932,0.78125 -31.119711,0 -31.119711,-18.22912 2.734368,-14.45309 13.67184,-14.45309 h 2.994784 q 9.895808,2.27864 12.955697,2.27864 h 5.27342 q 22.7864,-2.73437 22.7864,-6.83592 -4.36196,-2.79947 -45.572797,-7.61717 -10.351536,-1.43228 -19.661408,-10.28643 -7.421856,-6.96613 -7.421856,-15.49475 0,-2.21354 0.520832,-4.55728 6.18488,-36.13272 56.184749,-40.234272 z m 100.26016,47.851442 q -2.27864,-0.19531 -4.29686,-0.19531 -11.26299,0 -11.26299,7.09633 0,1.36719 0.39062,2.92968 0,4.75259 7.61717,11.3932 -3.05989,11.26299 -3.05989,12.17445 2.08333,6.05467 7.61717,6.05467 1.36718,0 18.22912,-9.11456 13.0859,9.11456 18.22912,9.11456 6.05467,-1.95312 6.05467,-6.83592 v -0.78125 l -3.77603,-12.10934 q 3.38541,-3.2552 6.05467,-11.3932 0,-7.55206 -13.67184,-9.11456 -7.42185,-13.0208 -13.86715,-13.0208 -5.85936,0 -14.25778,13.80205 z m 15.82028,-35.61189 q 23.95827,0 40.88531,15.03902 16.99214,15.03903 16.99214,36.32804 0,21.289 -16.99214,36.32803 -16.92704,15.03902 -40.88531,15.03902 -24.02338,0 -40.95042,-15.03902 -16.92704,-15.03903 -16.92704,-36.32803 0,-21.28901 16.92704,-36.32804 16.92704,-15.03902 40.95042,-15.03902 z m 81.90083,-7.682272 h 2.99478 q 11.13279,0 13.67184,15.169232 -4.55728,54.29674 -4.55728,62.23942 l 2.27864,1.5625 q 19.85672,-3.05989 23.56765,-3.05989 15.16923,2.79947 15.16923,15.16923 0,14.25778 -18.22912,15.23434 -19.40099,2.99478 -24.28379,2.99478 -19.27078,0 -26.56243,-14.38798 -1.5625,-5.27342 -1.5625,-9.11456 v -9.89581 q 3.1901,-71.35398 7.61717,-71.35398 5.01301,-4.557282 9.89581,-4.557282 z m 101.69245,43.294162 q -2.27864,-0.19531 -4.29687,-0.19531 -11.26299,0 -11.26299,7.09633 0,1.36719 0.39062,2.92968 0,4.75259 7.61717,11.3932 -3.05989,11.26299 -3.05989,12.17445 2.08333,6.05467 7.61717,6.05467 1.36719,0 18.22912,-9.11456 13.08591,9.11456 18.22912,9.11456 6.05467,-1.95312 6.05467,-6.83592 v -0.78125 l -3.77603,-12.10934 q 3.38541,-3.2552 6.05467,-11.3932 0,-7.55206 -13.67184,-9.11456 -7.42185,-13.0208 -13.86715,-13.0208 -5.85936,0 -14.25777,13.80205 z m 15.82027,-35.61189 q 23.95827,0 40.88531,15.03902 16.99214,15.03903 16.99214,36.32804 0,21.289 -16.99214,36.32803 -16.92704,15.03902 -40.88531,15.03902 -24.02338,0 -40.95042,-15.03902 -16.92704,-15.03903 -16.92704,-36.32803 0,-21.28901 16.92704,-36.32804 16.92704,-15.03902 40.95042,-15.03902 z"
       id="text5"
       style="font-size:133.333px;font-family:Starborn;-inkscape-font-specification:Starborn;white-space:pre;display:none;fill:#949494;fill-rule:evenodd;stroke:#ffffff;stroke-width:5.66929;stroke-linecap:round;stroke-linejoin:round;stroke-miterlimit:4.5;paint-order:markers fill stroke"
       transform="matrix(0.26458333,0,0,0.26458333,28.670407,98.890065)"
       aria-label="Solo" />
    <path
       d="m 152.75365,97.822758 q 13.67184,3.124992 13.67184,13.671842 v 2.27864 q -3.77603,25.13014 -3.77603,40.23427 v 5.27342 q 0,9.83071 1.17187,20.11714 0.39063,3.77603 0.39063,6.96613 0,5.66405 -1.23698,9.7656 -2.01822,6.44529 -13.99736,6.44529 -13.34632,0 -15.36454,-9.57028 -1.95312,-9.57029 -1.95312,-23.82807 -9.63539,-1.04166 -18.81506,-1.04166 -9.11456,0 -17.838495,1.04166 0,6.57551 2.27864,21.28901 v 1.49739 q 0,11.84893 -15.169232,13.67184 -15.95048,-2.73437 -15.95048,-20.50776 v -13.86715 h -0.455728 q -7.552064,0 -8.593728,-13.41142 -0.130208,-1.30208 -0.130208,-2.60416 0,-11.52341 8.658832,-15.03903 1.432288,-27.14837 5.924464,-32.552 3.385408,-4.16665 10.026016,-4.16665 2.018224,0 4.296864,0.39062 10.156224,0 12.955696,13.67184 v 2.27864 q -3.059888,12.82549 -3.515616,19.40099 9.830705,-0.84635 18.424435,-0.84635 10.09112,0 18.35933,1.17187 l 3.19009,-22.00515 q 2.73437,-19.726512 17.44787,-19.726512 z m 62.23943,41.015522 q -2.27864,-0.19531 -4.29687,-0.19531 -11.26299,0 -11.26299,7.09633 0,1.36719 0.39063,2.92968 0,4.75259 7.61716,11.3932 -3.05988,11.26299 -3.05988,12.17445 2.08332,6.05467 7.61716,6.05467 1.36719,0 18.22912,-9.11456 13.08591,9.11456 18.22912,9.11456 6.05468,-1.95312 6.05468,-6.83592 v -0.78125 l -3.77604,-12.10934 q 3.38541,-3.2552 6.05468,-11.3932 0,-7.55206 -13.67184,-9.11456 -7.42186,-13.0208 -13.86716,-13.0208 -5.85936,0 -14.25777,13.80205 z m 15.82027,-35.61189 q 23.95827,0 40.88531,15.03902 16.99215,15.03903 16.99215,36.32804 0,21.289 -16.99215,36.32803 -16.92704,15.03902 -40.88531,15.03902 -24.02338,0 -40.95042,-15.03902 -16.92704,-15.03903 -16.92704,-36.32803 0,-21.28901 16.92704,-36.32804 16.92704,-15.03902 40.95042,-15.03902 z M 351.9068,90.986838 q 31.05461,0 42.57801,18.945262 1.36719,3.12499 1.36719,6.31509 0,2.14843 -0.65104,4.36197 -1.88802,9.50518 -11.3932,11.3932 -10.87237,0 -14.19267,-4.16666 -3.2552,-4.23176 -6.83592,-5.33853 -3.51562,-1.17187 -9.30988,-1.17187 h -2.27864 q -20.70307,2.01823 -22.7864,9.89581 6.24999,2.08333 41.01552,6.83592 34.1796,7.35675 34.1796,29.62232 0,29.03638 -50.91132,37.95563 -6.64061,0.78125 -11.3932,0.78125 -31.11972,0 -31.11972,-18.22912 2.73437,-14.45309 13.67184,-14.45309 h 2.99479 q 9.89581,2.27864 12.95569,2.27864 h 5.27343 q 22.7864,-2.73437 22.7864,-6.83592 -4.36197,-2.79947 -45.5728,-7.61717 -10.35154,-1.43228 -19.66141,-10.28643 -7.42186,-6.96613 -7.42186,-15.49475 0,-2.21354 0.52084,-4.55728 6.18488,-36.13272 56.18475,-40.234272 z m 102.27836,3.776032 q 3.05989,-0.130208 5.79426,-0.130208 28.38534,0 28.38534,14.973918 v 1.6276 q 0,12.69528 -15.23433,13.93226 h -6.05468 q -1.49739,0.19531 -1.49739,1.49739 0,4.8828 -0.52083,61.52328 -3.97134,12.17445 -15.16923,12.17445 -15.23434,0 -15.23434,-23.56765 -0.26041,-11.71872 -0.26041,-21.1588 0,-17.12235 0.84635,-26.75774 -7.61717,3.12499 -9.89581,3.12499 h -1.5625 q -13.67184,-2.79947 -13.67184,-16.73173 0,-16.992144 44.07541,-20.50776 z"
       id="text6"
       style="font-size:133.333px;font-family:Starborn;-inkscape-font-specification:Starborn;white-space:pre;display:none;fill:#949494;fill-rule:evenodd;stroke:#ffffff;stroke-width:5.66929;stroke-linecap:round;stroke-linejoin:round;stroke-miterlimit:4.5;paint-order:markers fill stroke"
       transform="matrix(0.26458333,0,0,0.26458333,27.709864,98.313739)"
       aria-label="Host" />
    <path
       d="m 97.350149,105.37482 h 26.627541 q 13.41142,0 18.22912,13.67184 2.27864,14.71351 2.27864,33.39835 0,37.89053 -28.12493,49.41394 -6.11978,2.27864 -12.8906,2.27864 H 98.131397 Q 80.097589,203.16103 67.923141,192.9397 56.985669,183.82514 56.985669,175.55693 q 0,-0.91145 0.130208,-1.82291 2.799472,-14.45309 13.67184,-14.45309 h 2.27864 q 6.83592,0 16.731728,10.67706 5.338528,4.42707 10.742155,4.42707 2.14844,0 4.29687,-0.71614 7.48696,-2.40885 9.7656,-12.04424 0.97656,-3.97135 0.97656,-9.11456 0,-7.22655 -1.88802,-16.73173 H 99.628789 Q 82.180917,133.76017 82.180917,122.10655 v -3.05989 q 0,-11.58851 15.169232,-13.67184 z m 95.702881,33.46346 q -2.27864,-0.19531 -4.29686,-0.19531 -11.263,0 -11.263,7.09633 0,1.36719 0.39063,2.92968 0,4.75259 7.61717,11.3932 -3.05989,11.26299 -3.05989,12.17445 2.08333,6.05467 7.61717,6.05467 1.36718,0 18.22912,-9.11456 13.0859,9.11456 18.22912,9.11456 6.05467,-1.95312 6.05467,-6.83592 v -0.78125 l -3.77603,-12.10934 q 3.3854,-3.2552 6.05467,-11.3932 0,-7.55206 -13.67184,-9.11456 -7.42186,-13.0208 -13.86715,-13.0208 -5.85936,0 -14.25778,13.80205 z m 15.82027,-35.61189 q 23.95827,0 40.88531,15.03902 16.99215,15.03903 16.99215,36.32804 0,21.289 -16.99215,36.32803 -16.92704,15.03902 -40.88531,15.03902 -24.02337,0 -40.95041,-15.03902 -16.92704,-15.03903 -16.92704,-36.32803 0,-21.28901 16.92704,-36.32804 16.92704,-15.03902 40.95041,-15.03902 z m 87.17425,-18.359328 q 5.46874,0 8.91925,8.46352 1.17187,-0.0651 2.27864,-0.0651 8.52862,0 8.52862,6.054672 v 1.497386 q 0,1.43229 -5.85936,8.72394 2.34375,5.27342 2.34375,9.04945 0,0.84636 -0.13021,1.6276 -0.65104,4.16666 -5.33853,4.16666 -4.68749,0 -12.10934,-5.33853 -7.74738,6.11978 -10.93748,6.11978 -3.19009,0 -4.8828,-2.27864 -1.04166,-1.36719 -1.04166,-3.38541 0,-1.36718 0.45573,-2.99478 1.10677,-4.03645 2.34374,-6.57551 -6.5755,-6.64061 -6.5755,-11.393194 0,-3.971344 12.17445,-5.273424 5.14321,-8.398416 9.8307,-8.398416 z M 288.49549,134.281 h 6.05467 q 11.52341,1.10677 11.52341,10.87237 0,0.97656 -0.13021,2.01822 v 2.27864 q -2.27864,14.38798 -2.27864,20.50776 v 9.11456 q 1.49739,18.94526 1.49739,19.72651 0,10.41664 -15.16923,12.89059 -11.45831,-1.6276 -14.12757,-15.82027 -2.60416,-14.25777 -2.60416,-19.85672 0,-41.73166 15.23434,-41.73166 z M 406.39883,95.674326 q 12.10935,3.645824 15.42965,30.143154 2.73437,22.46088 2.73437,42.77333 0,3.58072 -0.0651,7.09633 -0.58594,23.43744 -17.12236,26.88795 -14.51819,0 -32.6822,-24.28379 -20.18224,-23.56765 -21.28901,-23.56765 h -0.71615 l -0.78124,1.5625 v 34.1796 q 0,9.50518 -10.61196,13.67184 h -7.61716 q -11.3932,-3.58072 -11.3932,-13.67184 v -38.02074 q 0,-31.57544 9.11456,-37.95563 5.27342,-3.77603 9.8958,-3.77603 h 3.05989 q 14.5833,0 44.20562,38.9973 1.43229,0.71614 2.27864,0.71614 l 0.71614,-1.49739 q -3.64582,-20.05203 -3.64582,-31.90096 0,-14.5833 5.53384,-16.79683 3.12499,-4.557284 12.95569,-4.557284 z"
       id="text7"
       style="font-size:133.333px;font-family:Starborn;-inkscape-font-specification:Starborn;white-space:pre;display:none;fill:#949494;fill-rule:evenodd;stroke:#ffffff;stroke-width:5.66929;stroke-linecap:round;stroke-linejoin:round;stroke-miterlimit:4.5;paint-order:markers fill stroke"
       transform="matrix(0.26458333,0,0,0.26458333,37.123188,98.121631)"
       aria-label="Join" />
  </g>
</svg>
